<svg width="36" height="36" viewBox="0 0 36 36" fill="none" xmlns="http://www.w3.org/2000/svg">
<circle cx="18" cy="18" r="18" fill="#F4F3F3"/>
<g clip-path="url(#clip0_20_111)">
<path fill-rule="evenodd" clip-rule="evenodd" d="M18 8C12.475 8 8 12.475 8 18C8 22.425 10.8625 26.1625 14.8375 27.4875C15.3375 27.575 15.525 27.275 15.525 27.0125C15.525 26.775 15.5125 25.9875 15.5125 25.15C13 25.6125 12.35 24.5375 12.15 23.975C12.0375 23.6875 11.55 22.8 11.125 22.5625C10.775 22.375 10.275 21.9125 11.1125 21.9C11.9 21.8875 12.4625 22.625 12.65 22.925C13.55 24.4375 14.9875 24.0125 15.5625 23.75C15.65 23.1 15.9125 22.6625 16.2 22.4125C13.975 22.1625 11.65 21.3 11.65 17.475C11.65 16.3875 12.0375 15.4875 12.675 14.7875C12.575 14.5375 12.225 13.5125 12.775 12.1375C12.775 12.1375 13.6125 11.875 15.525 13.1625C16.325 12.9375 17.175 12.825 18.025 12.825C18.875 12.825 19.725 12.9375 20.525 13.1625C22.4375 11.8625 23.275 12.1375 23.275 12.1375C23.825 13.5125 23.475 14.5375 23.375 14.7875C24.0125 15.4875 24.4 16.375 24.4 17.475C24.4 21.3125 22.0625 22.1625 19.8375 22.4125C20.2 22.725 20.5125 23.325 20.5125 24.2625C20.5125 25.6 20.5 26.675 20.5 27.0125C20.5 27.275 20.6875 27.5875 21.1875 27.4875C23.1726 26.8173 24.8976 25.5414 26.1197 23.8395C27.3418 22.1375 27.9994 20.0952 28 18C28 12.475 23.525 8 18 8Z" fill="black"/>
</g>
<defs>
<clipPath id="clip0_20_111">
<rect width="20" height="20" fill="white" transform="translate(8 8)"/>
</clipPath>
</defs>
</svg>
