<svg width="36" height="36" viewBox="0 0 36 36" fill="none" xmlns="http://www.w3.org/2000/svg">
<circle cx="18" cy="18" r="18" fill="#F4F3F3"/>
<rect width="20" height="20" transform="translate(8 8)" fill="#F4F3F3"/>
<path d="M27.7024 12.1142C27.0066 12.4225 26.2591 12.6308 25.4733 12.725C26.2841 12.2398 26.8907 11.4762 27.1799 10.5767C26.4181 11.0292 25.5844 11.3477 24.7149 11.5183C24.1302 10.8941 23.3558 10.4803 22.5119 10.3412C21.6679 10.2022 20.8017 10.3457 20.0476 10.7494C19.2936 11.1531 18.6939 11.7945 18.3417 12.5739C17.9895 13.3534 17.9045 14.2273 18.0999 15.06C16.5563 14.9825 15.0463 14.5813 13.6678 13.8824C12.2893 13.1836 11.0731 12.2026 10.0983 11.0033C9.76493 11.5783 9.57326 12.245 9.57326 12.955C9.57289 13.5942 9.73029 14.2235 10.0315 14.7873C10.3327 15.351 10.7684 15.8317 11.2999 16.1867C10.6835 16.1671 10.0807 16.0005 9.5416 15.7008V15.7508C9.54153 16.6473 9.85162 17.5162 10.4192 18.21C10.9869 18.9039 11.7771 19.38 12.6558 19.5575C12.0839 19.7123 11.4844 19.7351 10.9024 19.6242C11.1503 20.3955 11.6333 21.07 12.2836 21.5533C12.9339 22.0365 13.719 22.3043 14.5291 22.3192C13.154 23.3987 11.4557 23.9843 9.70743 23.9817C9.39775 23.9818 9.08833 23.9637 8.78076 23.9275C10.5553 25.0685 12.621 25.674 14.7308 25.6717C21.8724 25.6717 25.7766 19.7567 25.7766 14.6267C25.7766 14.46 25.7724 14.2917 25.7649 14.125C26.5243 13.5758 27.1799 12.8958 27.7008 12.1167L27.7024 12.1142V12.1142Z" fill="black"/>
</svg>
